<?xml version="1.0" standalone="no"?>
<!DOCTYPE svg PUBLIC "-//W3C//DTD SVG 20010904//EN"
 "http://www.w3.org/TR/2001/REC-SVG-20010904/DTD/svg10.dtd">
<svg version="1.0" xmlns="http://www.w3.org/2000/svg"
 width="427.000000pt" height="427.000000pt" viewBox="0 0 427.000000 427.000000"
 preserveAspectRatio="xMidYMid meet">
<metadata>
Created by potrace 1.14, written by Peter Selinger 2001-2017
</metadata>
<g transform="translate(0.000000,427.000000) scale(0.100000,-0.100000)"
fill="#000000" stroke="none">
<path d="M2057 3421 c4 -9 3 -13 -2 -9 -4 4 -15 2 -23 -5 -13 -10 -14 -9 -7 2
5 10 4 12 -3 7 -7 -4 -12 -15 -12 -24 0 -15 -2 -15 -10 -2 -5 8 -10 10 -10 3
0 -6 -15 -20 -32 -32 -18 -11 -28 -21 -22 -21 5 0 16 6 24 13 12 10 12 9 1 -5
-7 -10 -19 -18 -27 -18 -7 0 -16 -5 -20 -12 -5 -7 -3 -8 7 -3 8 5 6 0 -4 -12
-10 -11 -17 -27 -15 -34 2 -8 -2 -13 -8 -12 -7 1 -10 -10 -8 -29 2 -17 -1 -37
-7 -44 -7 -8 -7 -14 1 -19 6 -3 8 -11 5 -16 -4 -5 -1 -9 5 -9 7 0 7 -7 -1 -22
-12 -22 -11 -22 6 -8 17 14 18 14 6 -9 -8 -15 -9 -21 -2 -17 7 5 11 -3 11 -19
0 -15 4 -24 10 -20 6 3 10 1 10 -6 0 -6 12 -23 28 -37 15 -13 21 -21 13 -17
-10 6 -12 4 -7 -4 5 -7 15 -10 23 -7 8 3 12 2 10 -2 -3 -4 1 -13 9 -20 10 -9
14 -9 14 -1 0 6 8 3 18 -8 9 -10 13 -13 8 -6 -6 10 -4 12 8 7 9 -3 16 -10 16
-14 0 -4 18 -10 40 -12 22 -2 40 -1 40 3 0 3 12 4 26 1 16 -3 30 1 35 9 7 11
9 11 9 1 0 -7 5 -10 10 -7 6 4 7 12 3 18 -4 7 1 6 11 -2 9 -8 16 -10 15 -5 -4
21 2 28 11 14 7 -11 10 -11 10 -2 0 7 4 10 10 7 6 -4 7 1 3 12 -3 10 -3 15 2
11 4 -4 14 0 22 10 10 11 12 12 8 2 -4 -10 -2 -9 8 2 8 10 18 14 23 10 4 -4 3
0 -4 10 -11 14 -10 17 6 22 12 4 18 14 17 29 -1 12 5 30 13 40 18 21 23 55 11
78 -5 9 -4 20 2 26 8 8 7 13 0 17 -6 4 -11 12 -11 17 0 6 6 7 13 3 8 -5 8 -3
-2 9 -7 9 -18 14 -23 11 -6 -4 -5 4 2 16 8 15 8 20 1 16 -7 -4 -11 1 -11 13 0
11 -5 23 -12 27 -7 5 -8 3 -3 -6 5 -9 4 -11 -3 -6 -7 4 -12 14 -12 22 0 8 -8
14 -17 14 -13 0 -14 3 -6 8 9 6 6 11 -8 21 -12 7 -18 8 -14 2 3 -6 2 -11 -3
-11 -14 0 -23 28 -10 32 6 2 -6 4 -27 5 -21 1 -41 6 -45 13 -4 7 -34 10 -83 9
-64 -2 -74 -4 -70 -18z"/>
<path d="M2385 3091 c-3 -5 -2 -12 3 -15 5 -3 9 1 9 9 0 17 -3 19 -12 6z"/>
<path d="M2955 3089 c-4 -5 -17 -7 -30 -5 -17 3 -22 1 -19 -9 5 -12 -39 -31
-59 -26 -5 1 -6 -3 -2 -9 5 -9 -7 -14 -26 -12 -4 1 -5 -7 -2 -17 3 -13 -2 -23
-15 -30 -13 -7 -19 -18 -17 -31 2 -13 -4 -24 -17 -31 -17 -9 -18 -13 -7 -20 9
-6 10 -9 2 -9 -6 0 -10 -9 -8 -20 2 -11 -1 -22 -6 -25 -5 -4 -6 -12 -2 -18 11
-17 10 -31 -2 -39 -7 -5 -7 -8 0 -8 6 0 10 -34 9 -87 -1 -51 4 -94 10 -102 9
-12 7 -13 -8 -8 -14 6 -16 4 -9 -5 5 -7 9 -20 8 -28 0 -8 8 -21 18 -28 14 -11
15 -17 6 -28 -8 -10 -8 -14 0 -14 6 0 11 -7 11 -15 0 -8 5 -15 10 -15 6 0 10
-7 10 -15 0 -8 5 -15 11 -15 5 0 7 5 3 12 -4 7 -3 8 4 4 6 -4 9 -13 5 -21 -3
-10 1 -15 11 -15 9 0 19 -7 22 -15 4 -8 10 -12 15 -9 5 3 9 0 9 -6 0 -6 4 -9
9 -5 5 3 16 -2 25 -10 9 -10 17 -11 21 -5 4 6 12 7 18 3 7 -5 36 -8 65 -8 40
-1 52 3 53 15 0 10 3 9 9 -5 6 -13 9 -15 9 -5 1 13 2 13 11 0 9 -13 10 -13 11
0 1 8 1 19 0 23 -1 5 3 6 9 2 6 -3 17 1 26 10 9 9 23 14 31 11 8 -3 11 -1 8 4
-3 5 3 18 14 29 11 11 17 22 13 25 -3 3 2 6 10 6 11 0 15 8 14 24 -2 15 3 27
11 31 9 3 13 12 10 19 -3 8 1 17 9 20 10 4 12 11 7 18 -12 19 -12 151 -1 166
8 9 6 17 -5 30 -11 12 -13 22 -6 34 6 11 6 19 -1 23 -6 4 -7 12 -3 18 10 16
11 77 1 71 -5 -3 -6 -9 -3 -14 3 -5 1 -11 -4 -15 -6 -3 -8 3 -6 15 2 11 -1 22
-7 26 -7 4 -6 9 2 14 8 5 4 15 -15 34 -14 14 -23 31 -20 36 4 6 -1 7 -11 3
-13 -5 -15 -3 -9 7 6 10 4 12 -8 7 -9 -3 -19 -1 -23 5 -5 7 -2 8 6 3 9 -5 11
-4 6 3 -4 7 -13 12 -21 12 -8 0 -18 7 -22 15 -5 8 -24 16 -43 17 -19 2 -38 7
-42 12 -4 6 -12 5 -21 -2 -7 -7 -16 -9 -19 -7 -10 11 -48 14 -53 4z"/>
<path d="M1210 3078 c0 -5 6 -6 13 -2 6 4 8 3 4 -1 -12 -14 -38 -15 -30 -2 4
7 -1 6 -10 -2 -9 -7 -23 -11 -32 -7 -8 3 -14 1 -12 -5 1 -6 -9 -18 -23 -27
-20 -14 -23 -14 -16 -2 4 8 1 7 -7 -2 -8 -10 -19 -18 -26 -18 -6 0 -10 -3 -10
-7 4 -23 -3 -32 -18 -26 -16 6 -16 5 -4 -10 12 -15 11 -17 -4 -17 -10 0 -16
-3 -12 -6 3 -4 0 -13 -8 -20 -8 -8 -12 -21 -8 -30 3 -8 -3 -25 -13 -37 -15
-17 -15 -19 -2 -9 15 12 17 11 15 -7 -1 -12 -6 -20 -12 -17 -6 2 -11 -5 -11
-15 0 -11 4 -15 11 -9 6 5 10 -3 10 -26 1 -21 -4 -34 -12 -34 -7 0 -13 -5 -13
-11 0 -5 5 -7 10 -4 6 3 10 -1 10 -10 0 -9 -4 -13 -10 -10 -6 3 -7 -1 -4 -9 3
-9 10 -13 15 -10 5 3 6 -2 3 -10 -3 -9 -10 -13 -15 -10 -5 3 -6 -2 -3 -10 3
-9 11 -13 18 -9 6 3 2 -4 -8 -16 -14 -15 -15 -20 -5 -16 11 4 15 -1 15 -19 0
-14 -4 -22 -8 -20 -5 3 -6 10 -3 15 4 5 1 9 -4 9 -16 0 -13 -16 4 -34 18 -18
20 -30 3 -20 -9 6 -9 3 0 -9 8 -9 11 -21 7 -27 -3 -5 -2 -10 4 -10 6 0 7 -7 4
-17 -4 -11 -3 -14 5 -9 12 7 16 -5 12 -34 -1 -8 1 -12 5 -8 4 4 14 1 21 -7 17
-17 18 -29 2 -19 -7 4 -8 3 -4 -4 4 -6 13 -9 20 -6 8 3 17 0 22 -7 4 -8 3 -10
-4 -5 -7 4 -12 5 -12 2 0 -3 10 -10 21 -17 17 -9 20 -8 14 2 -6 8 -4 10 4 5 7
-5 10 -15 6 -23 -4 -13 -3 -14 10 -3 13 11 19 8 17 -11 -1 -3 9 -5 21 -5 12 1
21 -4 20 -9 -1 -6 7 -11 17 -11 15 0 17 3 7 15 -9 12 -7 11 12 -1 25 -18 55
-14 44 6 -4 7 -1 7 9 -1 8 -7 17 -11 19 -8 3 2 5 -5 5 -15 0 -11 -4 -20 -8
-20 -4 0 -8 5 -8 10 0 6 -5 10 -11 10 -5 0 -7 -5 -3 -11 4 -8 0 -8 -15 0 -11
7 -21 8 -21 4 0 -5 -22 -8 -50 -7 -43 0 -48 -2 -37 -15 9 -12 9 -13 0 -7 -7 4
-13 3 -13 -3 0 -5 -9 -8 -20 -6 -12 2 -20 -2 -20 -10 0 -16 -39 -47 -51 -40
-3 3 -6 -3 -5 -13 0 -9 -5 -16 -12 -14 -8 1 -11 -2 -8 -7 9 -14 -5 -42 -18
-34 -7 4 -7 2 1 -7 9 -10 8 -16 -3 -27 -10 -11 -12 -19 -4 -28 7 -9 6 -16 -6
-26 -14 -12 -14 -14 2 -26 16 -12 16 -13 1 -13 -9 0 -17 -5 -17 -11 0 -5 5 -7
10 -4 6 3 10 -1 10 -10 0 -9 -4 -13 -10 -10 -6 3 -7 -1 -4 -9 3 -9 9 -14 13
-12 10 6 6 -42 -4 -51 -4 -5 -5 -3 -1 4 3 6 2 14 -3 17 -5 4 -8 -2 -7 -11 2
-9 8 -19 14 -21 8 -2 7 -8 -3 -19 -14 -14 -14 -17 2 -30 13 -11 14 -13 3 -10
-11 3 -15 -2 -15 -19 1 -13 5 -27 10 -31 4 -5 5 -2 0 6 -5 9 -4 12 3 7 17 -10
15 -26 -3 -26 -8 0 -15 -5 -15 -11 0 -5 5 -7 10 -4 6 3 10 -1 10 -10 0 -9 -4
-13 -10 -10 -6 3 -7 -1 -4 -9 3 -9 9 -14 13 -12 10 6 6 -42 -4 -51 -4 -5 -5
-3 -1 4 3 6 2 14 -3 17 -5 4 -8 -2 -7 -11 2 -9 8 -19 14 -21 8 -2 7 -8 -3 -19
-14 -14 -14 -17 2 -30 13 -11 14 -13 3 -10 -11 3 -15 -2 -15 -19 1 -13 5 -27
10 -31 4 -5 5 -2 0 6 -5 9 -4 12 3 7 17 -10 15 -26 -3 -26 -8 0 -15 -5 -15
-11 0 -5 5 -7 10 -4 6 3 10 -1 10 -10 0 -9 -4 -13 -10 -10 -6 3 -7 -1 -4 -9 3
-9 9 -14 13 -12 10 6 6 -42 -4 -51 -4 -5 -5 -3 -1 4 3 6 2 14 -3 17 -5 4 -8
-1 -7 -10 1 -8 9 -20 17 -25 8 -5 9 -9 4 -9 -6 0 -16 -10 -24 -22 -13 -22 -13
-23 6 -5 19 16 20 16 18 -3 -1 -11 -5 -23 -10 -27 -4 -5 -5 -2 0 6 6 10 4 12
-5 6 -10 -6 -10 -10 2 -19 13 -10 13 -13 1 -25 -12 -11 -12 -15 4 -28 13 -11
14 -13 3 -10 -12 4 -16 -2 -14 -26 1 -17 7 -33 13 -35 7 -2 5 -9 -5 -19 -8 -8
-12 -18 -9 -21 3 -4 10 -1 14 6 4 8 7 -11 7 -41 -1 -31 2 -53 6 -51 5 3 8 -4
8 -15 0 -12 5 -21 11 -21 5 0 7 -4 4 -10 -3 -5 1 -10 9 -10 10 0 13 -6 9 -17
-4 -10 -2 -14 5 -9 6 3 13 -3 17 -14 3 -11 11 -20 16 -20 6 0 7 5 3 12 -4 7
-3 8 4 4 7 -4 12 -13 12 -19 0 -7 10 -14 22 -14 13 -1 28 -10 35 -19 7 -10 13
-14 13 -8 0 5 5 2 10 -6 6 -10 10 -11 10 -2 0 13 21 12 32 -2 4 -6 13 -4 22 3
13 11 16 11 16 0 0 -11 2 -11 10 1 5 8 10 10 10 4 0 -6 7 -11 15 -11 8 0 11 5
8 10 -4 6 5 8 21 5 21 -4 24 -3 15 9 -10 11 -8 12 6 7 13 -5 16 -4 10 5 -6 10
-3 11 15 1 17 -9 21 -9 15 0 -4 7 1 13 14 17 11 3 19 9 16 13 -2 4 7 12 21 19
14 6 24 17 21 24 -5 15 18 39 28 29 4 -4 4 4 0 17 -4 14 -3 21 3 17 5 -3 9 2
9 12 0 33 3 43 11 38 5 -3 9 1 9 9 0 8 -4 12 -8 10 -14 -9 -18 25 -4 39 13 12
12 15 -3 21 -15 6 -15 8 -2 18 21 17 22 60 1 53 -15 -6 -15 -5 0 7 15 11 15
14 1 26 -12 12 -13 16 -1 25 14 11 22 59 9 51 -4 -3 -11 2 -14 10 -3 9 1 18 8
21 8 3 13 13 11 22 -2 9 -4 24 -4 32 -1 13 -2 13 -11 0 -7 -10 -10 -11 -10 -2
0 7 6 15 14 18 14 5 14 40 0 53 -4 3 -4 -2 -1 -11 3 -10 2 -20 -2 -22 -12 -8
-8 33 4 42 6 4 11 17 11 30 1 17 -3 22 -15 18 -15 -6 -15 -5 0 7 15 11 15 14
1 26 -13 13 -13 16 4 28 16 12 12 18 -9 14 -5 -1 -6 3 -2 9 3 6 11 8 16 5 5
-4 9 -2 9 4 0 5 -6 12 -12 14 -10 4 -10 8 1 15 11 8 11 10 0 15 -12 5 -12 7
-1 15 11 7 10 11 -5 16 -16 7 -16 9 -3 19 21 17 22 60 1 53 -13 -5 -12 -3 2 8
14 10 15 15 5 19 -11 4 -10 7 1 15 11 8 11 10 0 15 -12 5 -12 7 -1 15 11 7 10
11 -5 16 -16 7 -16 9 -3 19 19 15 23 60 5 53 -14 -5 -14 19 0 31 4 4 5 1 0 -7
-6 -12 -5 -12 5 -3 10 9 10 15 -4 28 -21 21 -20 26 2 18 11 -4 9 1 -8 16 -14
12 -19 19 -11 15 11 -5 13 -3 8 10 -4 10 -7 22 -7 27 0 6 -4 7 -10 4 -6 -3 -7
1 -4 9 4 11 0 16 -12 16 -16 0 -17 2 -4 10 13 8 13 10 -1 10 -9 0 -19 9 -22
20 -3 11 -13 20 -22 20 -11 0 -15 5 -12 14 4 10 0 12 -14 9 -10 -3 -19 0 -19
6 0 6 -7 11 -15 11 -8 0 -15 4 -15 9 0 5 -8 8 -17 7 -13 -1 -18 7 -18 26 -1
21 2 25 12 16 7 -5 10 -15 6 -21 -3 -6 -1 -7 5 -3 6 4 8 14 5 24 -3 9 -3 14 1
10 4 -3 19 0 33 7 15 8 30 12 35 9 4 -3 5 1 2 9 -3 8 0 18 7 23 8 5 10 3 5 -7
-4 -8 2 -3 13 10 12 12 18 27 15 32 -3 5 3 6 12 2 11 -4 15 -2 11 4 -4 5 1 19
9 29 9 10 12 13 8 5 -5 -9 -3 -12 4 -7 9 5 9 13 2 26 -7 13 -7 21 2 26 7 5 8
3 3 -6 -6 -9 -4 -11 4 -5 9 5 10 10 2 18 -7 7 -5 15 7 24 15 13 15 14 0 10
-19 -7 -18 20 1 33 11 6 11 9 0 13 -9 4 -11 8 -4 14 14 10 13 56 0 66 -6 4 -5
10 4 16 11 7 11 9 0 14 -12 5 -12 7 -1 15 11 7 10 11 -5 16 -16 7 -16 9 -3 19
20 16 23 60 4 53 -11 -4 -11 -1 1 18 14 21 14 24 0 36 -9 7 -14 19 -11 27 3 7
1 13 -4 13 -6 0 -9 3 -8 8 3 14 -25 61 -33 56 -5 -3 -6 1 -3 9 3 9 -3 17 -16
20 -14 4 -19 10 -14 18 4 7 3 10 -4 5 -6 -3 -17 1 -26 10 -9 8 -21 12 -27 8
-8 -4 -9 -3 -5 4 5 8 -1 12 -14 12 -12 0 -18 4 -15 10 4 6 3 10 -2 9 -4 -1
-10 -1 -13 0 -19 8 -110 6 -110 -1z m105 -7 c3 -5 2 -12 -3 -15 -5 -3 -9 1 -9
9 0 17 3 19 12 6z m200 -210 c3 -5 2 -12 -3 -15 -5 -3 -9 1 -9 9 0 17 3 19 12
6z m5 -65 c0 -3 -4 -8 -10 -11 -5 -3 -10 -1 -10 4 0 6 5 11 10 11 6 0 10 -2
10 -4z m0 -150 c0 -2 -8 -10 -17 -17 -16 -13 -17 -12 -4 4 13 16 21 21 21 13z
m0 -650 c0 -3 -4 -8 -10 -11 -5 -3 -10 -1 -10 4 0 6 5 11 10 11 6 0 10 -2 10
-4z m0 -160 c0 -3 -4 -8 -10 -11 -5 -3 -10 -1 -10 4 0 6 5 11 10 11 6 0 10 -2
10 -4z m0 -240 c0 -3 -4 -8 -10 -11 -5 -3 -10 -1 -10 4 0 6 5 11 10 11 6 0 10
-2 10 -4z m0 -320 c0 -3 -4 -8 -10 -11 -5 -3 -10 -1 -10 4 0 6 5 11 10 11 6 0
10 -2 10 -4z"/>
<path d="M2135 2811 c6 -11 3 -13 -13 -9 -12 3 -21 3 -20 -1 2 -19 -3 -24 -12
-11 -9 13 -11 13 -19 0 -6 -8 -13 -11 -17 -8 -9 9 -46 -11 -40 -21 3 -4 -8 -7
-24 -6 -24 1 -28 -1 -19 -12 11 -12 9 -14 -21 -16 -9 0 -40 -37 -32 -37 4 0
12 3 18 8 5 4 2 0 -8 -9 -9 -9 -14 -20 -10 -24 4 -5 -2 -5 -12 -1 -16 5 -17 4
-6 -9 10 -12 9 -16 -3 -21 -9 -3 -13 -12 -10 -21 5 -12 3 -14 -7 -8 -9 6 -11
4 -5 -5 5 -8 1 -18 -11 -28 -18 -14 -18 -14 1 -8 16 5 21 1 21 -13 0 -13 -4
-17 -11 -11 -6 5 -10 0 -10 -15 0 -13 3 -21 6 -19 4 2 5 -10 3 -26 -2 -16 1
-32 6 -35 13 -8 13 -25 -1 -25 -5 0 -7 5 -4 10 3 6 2 10 -4 10 -5 0 -9 -9 -8
-19 0 -11 4 -18 8 -15 9 5 6 -17 -4 -33 -4 -6 -2 -15 4 -19 8 -5 9 -3 4 6 -6
9 -4 11 5 5 10 -6 10 -11 -3 -20 -9 -7 -14 -14 -11 -17 2 -3 5 -31 6 -62 1
-32 6 -60 10 -62 12 -7 10 -24 -3 -24 -5 0 -7 5 -4 10 3 6 2 10 -4 10 -5 0 -9
-9 -8 -19 0 -11 4 -18 8 -15 9 5 6 -17 -4 -33 -4 -6 -2 -15 4 -19 8 -5 9 -3 4
6 -6 9 -4 11 5 5 10 -6 10 -11 -3 -20 -9 -7 -14 -14 -11 -17 2 -3 5 -31 6 -62
1 -32 6 -60 10 -62 12 -7 10 -24 -3 -24 -5 0 -7 5 -4 10 3 6 2 10 -4 10 -5 0
-9 -9 -8 -19 0 -11 4 -18 8 -15 9 5 6 -17 -4 -33 -4 -6 -2 -15 4 -19 8 -5 9
-3 4 6 -6 9 -4 11 5 5 10 -6 10 -11 -3 -20 -9 -7 -14 -14 -11 -17 2 -3 5 -31
6 -62 1 -32 6 -60 10 -62 12 -7 10 -24 -3 -24 -5 0 -7 5 -4 10 3 6 2 10 -4 10
-5 0 -9 -9 -8 -19 0 -11 4 -18 8 -15 9 5 6 -17 -4 -33 -4 -6 -2 -15 4 -19 8
-5 9 -3 4 6 -6 9 -4 11 5 5 10 -6 10 -11 -3 -20 -9 -7 -14 -14 -11 -17 2 -3 5
-31 6 -62 1 -32 6 -60 10 -62 12 -7 10 -24 -3 -24 -5 0 -7 5 -4 10 3 6 2 10
-4 10 -5 0 -9 -9 -8 -19 0 -11 4 -18 8 -15 9 5 6 -17 -4 -33 -4 -6 -2 -15 4
-19 8 -5 9 -3 4 6 -6 9 -4 11 5 5 10 -6 10 -11 -3 -20 -9 -7 -14 -14 -11 -17
2 -3 5 -31 6 -62 1 -32 6 -60 10 -62 12 -7 10 -24 -3 -24 -5 0 -7 5 -4 10 3 6
1 10 -5 10 -6 0 -8 -10 -4 -25 4 -15 1 -32 -7 -43 -11 -14 -11 -15 1 -5 21 19
35 16 19 -4 -10 -11 -10 -14 -1 -9 6 4 12 2 12 -3 0 -6 -6 -11 -12 -11 -9 0
-10 -2 -2 -8 7 -4 14 -16 16 -27 2 -11 10 -19 18 -17 11 3 11 0 -1 -14 -12
-16 -12 -17 4 -11 10 4 16 3 13 -1 -3 -5 4 -16 15 -25 11 -10 17 -22 13 -28
-3 -6 2 -9 12 -7 11 2 18 -2 17 -9 -2 -7 6 -10 18 -8 17 3 18 1 10 -9 -9 -11
-9 -14 1 -13 36 1 49 -4 42 -16 -5 -8 -2 -8 9 2 14 11 17 11 17 0 0 -12 2 -12
9 -1 6 11 10 10 15 -3 6 -16 8 -16 31 -1 22 15 25 15 34 -2 10 -16 10 -15 11
3 0 16 2 17 10 5 7 -12 12 -12 22 -2 6 6 20 12 30 12 10 0 18 5 18 11 0 5 3 8
8 6 9 -6 33 19 25 26 -3 3 6 3 19 0 12 -3 20 -2 16 2 -4 4 6 19 22 33 17 15
30 31 30 37 0 5 -5 3 -10 -5 -5 -8 -10 -10 -10 -4 0 16 25 35 36 26 4 -4 2 1
-6 11 -7 10 -9 17 -4 16 21 -4 24 2 13 22 -8 15 -8 19 0 15 10 -7 16 7 11 29
-8 40 -8 44 6 38 10 -4 12 0 8 11 -3 9 -9 14 -13 12 -9 -6 -7 51 2 60 10 10 9
26 -1 20 -11 -7 -8 31 3 41 4 5 5 2 0 -6 -5 -9 -4 -12 3 -7 16 10 15 26 0 26
-9 0 -13 17 -13 50 0 40 3 49 14 45 10 -4 8 2 -5 16 -10 12 -13 19 -6 15 6 -4
12 -3 12 3 0 5 -6 12 -12 14 -9 4 -9 6 -2 6 8 1 9 12 4 37 -7 31 -6 35 8 30
10 -4 7 3 -8 16 -16 14 -19 19 -7 15 19 -7 24 9 5 16 -10 4 -10 6 0 6 7 1 10
6 7 11 -12 19 -16 60 -6 60 6 0 8 -9 6 -20 -2 -11 0 -18 5 -15 11 7 7 29 -10
51 -9 11 -10 15 -2 10 6 -4 12 -3 12 3 0 5 -6 12 -12 14 -10 4 -9 6 1 6 10 1
11 4 2 15 -9 10 -8 15 3 19 14 5 14 10 0 43 -14 34 -14 36 2 30 16 -6 16 -4
-2 15 -10 12 -13 19 -6 15 6 -4 12 -3 12 3 0 5 -6 12 -12 14 -10 4 -10 6 -1 6
9 1 10 8 3 27 -8 19 -7 23 3 18 8 -5 8 -2 -2 9 -11 14 -11 17 0 17 10 0 10 3
1 12 -15 15 -15 28 -1 28 5 0 7 -5 3 -12 -5 -7 -3 -8 5 -4 9 6 8 13 -6 29 -10
11 -12 17 -5 13 6 -4 12 -3 12 3 0 5 -6 12 -12 14 -10 4 -9 6 1 6 10 1 11 4 2
15 -9 10 -8 15 3 19 14 5 14 10 0 43 -14 34 -14 36 2 30 16 -6 16 -4 -2 15
-10 12 -13 19 -6 15 6 -4 12 -3 12 3 0 5 -6 12 -12 14 -10 4 -10 6 -1 6 9 1
10 8 3 27 -8 19 -7 23 3 18 8 -5 8 -2 -2 9 -11 14 -11 17 0 17 10 0 10 3 1 12
-15 15 -15 28 -1 28 5 0 7 -5 3 -12 -5 -7 -3 -8 5 -4 9 6 8 13 -6 29 -10 11
-12 17 -5 13 6 -4 12 -3 12 3 0 5 -6 12 -12 14 -10 4 -9 6 1 6 10 1 11 4 2 15
-9 10 -8 15 3 19 12 5 13 11 3 36 -6 16 -15 27 -21 24 -5 -4 -6 -1 -2 6 5 7
15 10 25 7 12 -5 11 -2 -3 9 -11 8 -15 15 -10 15 15 0 10 40 -5 50 -10 6 -10
9 -1 15 8 5 5 11 -9 21 -12 9 -18 22 -16 34 2 13 -2 20 -11 20 -8 0 -14 9 -14
20 0 11 -7 20 -16 20 -8 0 -13 3 -11 8 3 4 -2 14 -11 22 -14 13 -15 12 -9 -5
6 -15 1 -12 -17 8 -16 19 -26 24 -29 15 -3 -8 -6 -5 -6 6 -1 11 -4 16 -8 13
-3 -4 -13 -1 -21 6 -13 10 -14 9 -8 -1 7 -11 4 -12 -13 -3 -16 9 -21 9 -21 -1
0 -8 -3 -9 -8 -3 -4 6 -16 17 -26 25 -16 12 -18 12 -11 1z"/>
<path d="M983 2765 c0 -8 4 -12 9 -9 5 3 6 10 3 15 -9 13 -12 11 -12 -6z"/>
<path d="M2386 2638 c3 -5 10 -6 15 -3 13 9 11 12 -6 12 -8 0 -12 -4 -9 -9z"/>
<path d="M457 2614 c4 -11 2 -15 -4 -11 -6 4 -22 -2 -34 -14 -13 -11 -17 -17
-9 -13 12 6 13 5 2 -7 -11 -12 -14 -12 -23 1 -8 12 -9 10 -4 -7 4 -15 0 -25
-11 -31 -20 -11 -28 -42 -11 -42 7 0 5 -5 -3 -10 -13 -9 -13 -10 0 -10 13 0
13 -1 0 -10 -12 -8 -12 -10 -1 -10 11 0 11 -3 1 -15 -10 -12 -10 -15 1 -15 11
0 11 -2 -1 -10 -10 -6 -11 -10 -2 -10 6 0 12 -5 12 -11 0 -5 -4 -8 -8 -5 -5 3
-9 -1 -9 -9 0 -8 5 -15 11 -15 6 0 4 -5 -4 -10 -10 -6 -11 -10 -2 -10 6 0 12
-5 12 -11 0 -5 -4 -8 -8 -5 -4 2 -8 -4 -8 -14 0 -10 4 -16 8 -14 4 3 8 1 8 -5
0 -5 -5 -13 -10 -16 -8 -5 -8 -11 0 -20 8 -10 8 -15 0 -20 -8 -5 -5 -12 7 -22
10 -8 13 -12 6 -9 -6 4 -14 2 -18 -4 -3 -5 -1 -10 5 -10 6 0 8 -5 3 -12 -11
-19 -11 -58 0 -51 6 4 7 1 2 -7 -13 -22 -15 -81 -1 -73 6 4 5 -1 -3 -10 -9
-11 -10 -17 -2 -17 6 0 11 -5 11 -11 0 -5 -4 -8 -8 -5 -4 2 -8 -4 -8 -14 0
-10 4 -16 8 -14 4 3 8 1 8 -5 0 -5 -5 -13 -10 -16 -8 -5 -8 -11 0 -20 8 -10 8
-15 0 -20 -8 -5 -5 -12 7 -22 10 -8 13 -12 6 -9 -6 4 -14 2 -18 -4 -3 -5 -1
-10 5 -10 6 0 8 -5 3 -12 -11 -19 -11 -58 0 -51 6 4 7 1 2 -7 -12 -19 -13 -80
-2 -73 6 4 7 1 1 -8 -11 -18 -12 -69 -1 -62 5 3 6 11 3 19 -3 7 -2 15 2 18 4
2 9 -5 10 -17 5 -49 10 -60 31 -71 12 -7 19 -15 16 -19 -3 -4 -2 -5 1 -2 4 2
19 -4 34 -15 15 -11 30 -16 34 -12 4 4 16 8 27 8 36 3 40 4 34 13 -3 6 7 9 22
8 17 -1 27 3 26 10 -2 8 4 10 14 6 12 -5 15 -2 10 10 -4 11 1 18 14 22 10 4
17 10 14 15 -3 5 0 22 8 37 16 31 12 57 -6 46 -7 -3 -3 4 7 16 17 19 17 21 3
15 -13 -5 -16 -2 -11 10 3 9 11 13 17 9 5 -3 7 -1 3 5 -3 5 0 13 6 16 7 3 3 3
-9 0 -22 -5 -26 8 -9 35 5 8 3 16 -5 22 -13 8 -6 13 13 10 4 0 5 6 2 14 -4 8
-11 12 -18 8 -6 -3 -3 3 7 14 9 11 17 24 17 29 0 5 -4 2 -10 -6 -5 -8 -12 -12
-15 -8 -4 3 3 16 15 28 21 21 21 22 2 16 -21 -7 -24 6 -8 33 5 8 3 16 -5 22
-13 8 -6 13 13 10 4 0 5 6 2 14 -4 8 -11 12 -18 8 -6 -3 -3 3 7 14 9 11 17 24
17 29 0 5 -4 2 -10 -6 -5 -8 -12 -12 -15 -8 -4 3 3 16 15 28 21 21 21 22 2 16
-21 -7 -24 6 -8 33 5 8 3 16 -5 22 -13 8 -6 13 13 10 4 0 5 6 2 14 -4 8 -11
12 -18 8 -6 -3 -3 3 7 14 9 11 17 24 17 29 0 5 -4 2 -10 -6 -5 -8 -12 -12 -15
-8 -4 3 3 16 15 28 21 21 21 22 2 16 -21 -7 -24 6 -7 33 5 10 4 16 -3 19 -7 2
-12 8 -12 13 0 6 5 7 10 4 10 -6 9 22 -1 40 -7 10 -5 23 7 63 4 14 2 22 -6 22
-10 0 -10 3 0 15 9 10 9 15 1 15 -6 0 -10 3 -10 8 4 22 -2 42 -11 37 -5 -3
-10 1 -10 10 0 10 -5 13 -12 9 -8 -5 -9 -2 -5 10 4 10 3 15 -3 11 -6 -3 -13 2
-17 11 -6 16 -7 16 -14 -2 -7 -18 -8 -18 -8 -1 -1 16 -8 18 -49 16 -26 -1 -53
1 -60 5 -8 5 -10 2 -5 -10z m-72 -104 c3 -5 2 -10 -4 -10 -5 0 -13 5 -16 10
-3 6 -2 10 4 10 5 0 13 -4 16 -10z m-5 -440 c0 -5 -2 -10 -4 -10 -3 0 -8 5
-11 10 -3 6 -1 10 4 10 6 0 11 -4 11 -10z m0 -320 c0 -5 -2 -10 -4 -10 -3 0
-8 5 -11 10 -3 6 -1 10 4 10 6 0 11 -4 11 -10z m110 -182 c0 -6 -6 -5 -15 2
-8 7 -15 14 -15 16 0 2 7 1 15 -2 8 -4 15 -11 15 -16z"/>
<path d="M3726 2614 c-9 -8 -21 -12 -27 -8 -8 4 -9 3 -5 -4 4 -7 -3 -17 -19
-24 -18 -8 -22 -14 -13 -20 10 -6 10 -8 -1 -8 -9 0 -11 -7 -8 -21 5 -17 3 -18
-11 -7 -9 7 -14 8 -10 4 4 -5 3 -15 -4 -23 -9 -11 -7 -12 8 -6 16 6 17 4 7 -8
-7 -9 -11 -38 -10 -72 2 -33 -1 -57 -7 -57 -6 0 -6 -4 1 -11 6 -6 7 -25 3 -49
-4 -22 -5 -42 -2 -45 9 -9 7 -65 -2 -65 -6 0 -1 -7 10 -16 10 -8 14 -13 8 -10
-7 3 -14 -5 -16 -19 -3 -13 -1 -22 3 -19 5 3 9 0 9 -5 0 -6 -5 -11 -12 -11 -6
0 -3 -7 8 -16 10 -8 14 -13 8 -10 -7 3 -14 -5 -16 -19 -3 -13 -2 -22 2 -20 11
7 6 -79 -5 -87 -7 -5 -7 -8 0 -8 6 0 11 -11 11 -25 1 -14 -2 -22 -7 -19 -5 3
-7 -1 -4 -8 11 -31 11 -98 1 -98 -7 0 -7 -3 -1 -8 12 -8 19 -55 7 -48 -4 2 -6
-11 -4 -30 3 -22 8 -31 16 -27 6 4 5 0 -2 -9 -10 -13 -10 -18 -1 -24 8 -4 9
-3 5 4 -4 7 -5 12 -2 12 3 0 10 -10 17 -21 6 -12 7 -19 2 -16 -5 4 -10 0 -10
-7 0 -8 9 -13 23 -11 16 1 21 -3 19 -15 -2 -9 2 -17 8 -17 7 0 21 -4 31 -9 14
-5 17 -4 11 5 -5 10 -3 11 11 4 11 -5 37 -9 60 -8 33 1 48 9 85 46 24 24 36
38 26 30 -15 -12 -17 -12 -11 3 3 9 9 16 13 16 9 0 8 31 -2 48 -5 7 -3 10 5 7
9 -4 14 2 14 14 0 11 -4 17 -8 15 -13 -8 -9 11 5 25 10 11 10 13 0 7 -9 -5
-13 0 -13 16 0 18 2 20 10 8 7 -12 9 -10 7 7 0 12 -5 19 -9 17 -4 -3 -8 -1 -8
5 0 5 4 12 9 16 6 3 9 14 8 25 -1 14 -5 16 -13 9 -9 -8 -11 -5 -7 10 3 12 10
18 17 14 6 -4 5 1 -3 10 -11 14 -11 20 0 34 8 9 9 14 3 10 -7 -4 -11 5 -12 25
-1 25 2 29 10 18 8 -12 9 -11 4 3 -3 10 -6 21 -6 23 0 3 -6 2 -12 -2 -9 -5 -9
-2 1 9 7 9 10 17 6 17 -4 0 -1 8 6 17 12 14 12 16 0 8 -10 -6 -13 -4 -9 6 22
54 22 55 6 41 -14 -11 -16 -10 -11 7 3 12 10 18 17 14 6 -3 6 0 -1 8 -7 7 -13
24 -13 38 0 20 2 23 10 11 7 -12 9 -10 7 7 0 12 -5 19 -9 17 -13 -8 -9 11 5
25 10 11 10 13 0 7 -9 -5 -13 0 -13 16 0 18 2 20 10 8 7 -12 9 -10 7 7 0 12
-5 19 -9 17 -4 -3 -8 -1 -8 5 0 5 4 12 9 16 6 3 9 14 8 25 -1 14 -5 16 -13 9
-9 -8 -11 -5 -7 10 3 12 10 18 15 15 6 -4 2 6 -8 22 -11 15 -14 25 -7 21 6 -4
14 -3 18 3 3 5 2 10 -3 10 -5 0 -8 10 -8 23 1 12 -2 30 -6 40 -6 11 -5 17 4
17 9 0 9 3 -2 9 -8 6 -18 7 -24 4 -5 -3 -6 -1 -2 5 4 7 0 22 -8 34 -9 12 -16
18 -16 12 0 -5 3 -14 8 -19 4 -6 -3 -1 -14 10 -12 11 -19 24 -16 29 3 5 -2 7
-10 3 -9 -3 -21 0 -27 6 -8 8 -11 8 -11 -1 0 -8 -7 -9 -25 -2 -14 5 -25 6 -25
1 0 -5 -7 -12 -16 -15 -14 -5 -15 -4 -4 9 16 20 6 19 -14 -1z"/>
<path d="M669 2438 c-5 -18 -6 -38 -1 -34 7 8 12 36 6 36 -2 0 -4 -1 -5 -2z"/>
<path d="M2986 2331 c-9 -14 -54 -19 -67 -7 -9 8 -10 8 -6 0 4 -6 -1 -20 -9
-30 -15 -19 -15 -19 -10 1 5 15 0 13 -21 -10 -16 -17 -24 -24 -19 -15 5 8 -4
2 -20 -15 -17 -16 -29 -33 -27 -38 3 -4 -2 -10 -11 -13 -8 -3 -13 -14 -11 -26
3 -14 0 -18 -11 -14 -8 3 -13 2 -9 -3 3 -5 2 -11 -2 -14 -5 -2 -2 -2 5 -1 16
4 15 -1 -5 -21 -14 -14 -14 -18 -2 -26 8 -5 9 -9 4 -9 -11 0 -13 -119 -2 -137
4 -7 4 -14 0 -16 -10 -7 -9 -208 1 -225 4 -6 3 -12 -1 -12 -10 0 -10 -136 0
-146 3 -4 3 -14 -1 -23 -10 -20 -9 -322 1 -338 4 -6 3 -14 -2 -17 -5 -4 -8
-14 -6 -24 2 -9 4 -21 4 -25 1 -5 5 -6 10 -3 13 8 21 -20 10 -31 -6 -6 -3 -15
8 -24 17 -13 17 -13 3 6 -14 19 -14 19 3 6 10 -8 16 -20 13 -27 -3 -7 0 -16 6
-20 7 -5 8 -2 4 7 -4 8 -1 5 8 -5 8 -10 13 -23 10 -27 -8 -13 10 -11 24 3 9 9
11 6 7 -11 -2 -12 0 -19 5 -16 5 3 20 0 35 -7 18 -8 22 -14 13 -20 -9 -5 -10
-8 -1 -8 6 0 15 5 18 10 5 8 12 7 22 -2 8 -6 25 -13 36 -15 18 -2 19 -1 7 7
-12 8 -11 10 5 7 11 -1 26 -6 33 -10 6 -5 12 -4 12 2 0 6 12 9 28 8 19 -1 27
3 26 14 -1 9 5 16 12 16 7 0 11 -4 8 -9 -10 -15 9 -8 23 10 10 11 12 12 8 2
-4 -9 0 -7 9 4 9 11 20 15 28 10 10 -6 11 -5 1 8 -11 12 -9 17 12 26 15 7 22
17 19 26 -3 8 0 17 7 22 7 4 10 3 5 -4 -3 -6 -2 -13 3 -16 5 -3 8 10 6 29 -1
20 3 38 8 42 6 3 7 1 3 -5 -3 -6 -1 -14 6 -18 7 -4 10 -4 6 1 -4 4 -3 14 3 21
7 8 6 14 -2 20 -8 5 -9 3 -4 -6 5 -8 4 -11 -3 -6 -6 4 -9 13 -6 21 4 8 10 13
14 10 5 -3 7 3 5 12 -1 10 -9 17 -16 15 -10 -1 -9 2 3 11 13 10 15 21 8 55 -5
28 -4 39 3 35 7 -4 8 1 3 13 -11 28 -14 64 -6 64 11 0 7 34 -5 42 -6 5 -4 8 5
8 11 1 10 4 -4 15 -17 13 -17 15 -3 15 13 0 15 7 11 33 -3 17 -8 38 -10 46 -4
12 -2 12 12 0 16 -13 16 -12 5 9 -7 12 -17 20 -24 16 -7 -3 -1 4 13 16 14 12
20 19 14 16 -7 -3 -14 1 -18 9 -3 8 -2 15 3 15 12 0 9 33 -4 42 -6 5 -4 8 5 8
11 1 10 4 -4 15 -17 13 -17 15 -3 15 13 0 15 7 11 33 -3 17 -8 38 -10 45 -2 8
1 10 8 6 8 -5 9 -1 4 12 -11 28 -14 64 -6 64 11 0 7 34 -5 42 -6 5 -4 8 5 8
11 1 10 4 -4 15 -17 13 -17 15 -3 15 13 0 15 7 11 33 -3 17 -8 38 -10 46 -4
12 -2 12 12 0 16 -13 16 -12 5 9 -7 13 -12 33 -11 45 4 39 0 48 -12 41 -9 -5
-9 -2 1 9 9 11 10 17 2 17 -6 0 -11 9 -11 20 0 11 -4 20 -10 20 -5 0 -10 9
-10 20 0 11 -5 20 -11 20 -5 0 -7 5 -4 10 3 6 -1 10 -9 10 -9 0 -16 7 -16 16
0 8 -4 12 -10 9 -5 -3 -10 -1 -10 4 0 6 -7 11 -15 11 -9 0 -18 7 -21 15 -4 8
-10 12 -15 9 -5 -3 -9 -1 -9 5 0 5 -9 8 -20 6 -11 -2 -20 0 -20 5 0 5 -7 7
-15 4 -8 -4 -22 -1 -30 6 -10 9 -15 9 -15 1 0 -6 -5 -11 -11 -11 -5 0 -7 5 -4
10 3 6 4 10 1 10 -3 0 -7 -4 -10 -9z"/>
<path d="M3750 1560 c-9 -6 -10 -10 -3 -10 6 0 15 5 18 10 8 12 4 12 -15 0z"/>
<path d="M2415 1431 c-3 -5 -2 -12 3 -15 5 -3 9 1 9 9 0 17 -3 19 -12 6z"/>
<path d="M2413 1285 c0 -8 4 -12 9 -9 4 3 8 9 8 15 0 5 -4 9 -8 9 -5 0 -9 -7
-9 -15z"/>
</g>
</svg>
